PathFileType	4	(X/Y/Z)	DARI_DATA/Captury_Subj6_bilateral_squat02.trc
DataRate	CameraRate	NumFrames	NumMarkers	Units	OrigDataRate	OrigDataStartFrame	OrigNumFrames
60	60	4	47	mm	59.99879837036133	154	204
Frame#	Time		LeftUpLeg_		RightUpLeg_		LeftLeg_		RightLeg_		LeftFoot_		RightFoot_		LeftToeBase_		RightToeBase_		Knee_Lateral_r		Knee_Lateral_l		Ankle_Lateral_r		Ankle_Lateral_l		LeftArm_		LeftForeArm_		LeftHand_		LeftHandEE		RightArm_		RightForeArm_		RightHand_		RightHandEE		Spine_		Spine1_		Spine2_		Spine3_		Spine4_		Spine5_		Spine_x		Spine_y		Spine_z		RASI		LASI		RIPS		LIPS		RTHI		LTHI		RTIB		LTIB		RTOE		LTOE		RHEE		LHEE		RHipAngles		LHipAngles		RKneeAngles		LKneeAngles		RAnkleAngles		LAnkleAngles
			X1	Y1	Z1	X2	Y2	Z2	X3	Y3	Z3	X4	Y4	Z4	X5	Y5	Z5	X6	Y6	Z6	X7	Y7	Z7	X8	Y8	Z8	X9	Y9	Z9	X10	Y10	Z10	X11	Y11	Z11	X12	Y12	Z12	X13	Y13	Z13	X14	Y14	Z14	X15	Y15	Z15	X16	Y16	Z16	X17	Y17	Z17	X18	Y18	Z18	X19	Y19	Z19	X20	Y20	Z20	X21	Y21	Z21	X22	Y22	Z22	X23	Y23	Z23	X24	Y24	Z24	X25	Y25	Z25	X26	Y26	Z26	X27	Y27	Z27	X28	Y28	Z28	X29	Y29	Z29	X30	Y30	Z30	X31	Y31	Z31	X32	Y32	Z32	X33	Y33	Z33	X34	Y34	Z34	X35	Y35	Z35	X36	Y36	Z36	X37	Y37	Z37	X38	Y38	Z38	X39	Y39	Z39	X40	Y40	Z40	X41	Y41	Z41	X42	Y42	Z42	X43	Y43	Z43	X44	Y44	Z44	X45	Y45	Z45	X46	Y46	Z46	X47	Y47	Z47

154	2.55000	-92.76630	946.84283	192.56677	104.25793	943.09222	191.08310	-197.39307	537.23657	-35.47472	209.78333	540.71118	-49.08510	-195.33009	103.97864	60.33189	215.94038	111.99612	65.20003	-226.83829	31.08574	-68.29666	240.81064	32.14759	-60.72505	262.96487	542.70862	-34.68407	-250.02814	538.26996	-19.09980	263.64917	117.73236	100.17406	-241.62801	107.46802	97.43369	-151.42404	1502.00415	-70.96376	-199.07852	1456.85352	-408.53046	-184.74886	1419.30261	-678.94604	-169.91063	1415.62988	-777.54041	168.38290	1504.80652	-61.38905	233.39755	1484.13416	-398.44476	217.13823	1488.91309	-671.30518	207.75394	1480.14966	-770.24786	7.70551	1053.87109	176.76770	8.90977	1153.37134	117.92647	9.81702	1235.41174	99.07443	10.74899	1342.65674	95.52331	10.72589	1483.15466	25.99148	0.00000	0.00000	0.00000	62.85111	1052.82129	176.35243	8.55946	1105.93115	158.56535	8.44389	1072.06323	228.83316	170.85782	975.82471	61.48618	-160.01581	982.12323	63.97781	51.75266	1032.71045	218.59618	-36.48031	1034.39014	219.26060	226.36087	758.97974	103.56869	-213.54202	758.13660	113.39304	259.84497	346.17844	-2.61799	-241.82520	274.68304	12.41578	253.87207	20.41667	-144.12119	-242.55467	28.31365	-152.01309	211.23882	47.35719	134.57538	-190.45863	35.96007	126.38473	-52.08138	11.03112	11.51653	-50.39333	8.64345	14.50924	-41.14172	-0.51868	-0.46486	-37.43705	-0.74731	-0.26612	1.92612	-5.56850	4.41491	1.24692	-5.57008	6.62814
155	2.56667	-93.52020	956.88000	184.21925	103.49651	952.67072	182.99104	-194.16913	539.30432	-30.78624	206.64722	542.33923	-44.41826	-195.88165	105.17230	60.98580	215.87338	112.56406	65.59953	-226.36201	31.51127	-67.45271	240.50769	32.31952	-60.12005	259.85214	544.50549	-30.12842	-246.92154	540.56104	-14.80942	263.59650	118.57964	100.50703	-242.41193	109.00987	97.76108	-150.83453	1522.67712	-64.42268	-197.20500	1477.04700	-402.10370	-181.99973	1439.02246	-672.40527	-167.03456	1435.03577	-770.96826	169.01299	1524.21326	-55.32080	233.02823	1503.25781	-392.55029	216.81339	1507.83093	-665.41687	206.76610	1498.40967	-764.23395	7.24748	1064.04529	171.54137	8.79974	1165.97144	115.24715	9.91484	1249.33081	98.46481	11.05973	1357.44971	97.73014	11.31519	1500.72363	32.03226	0.00000	0.00000	0.00000	62.39098	1062.86719	171.19760	8.26540	1116.58228	154.77400	7.93307	1080.80212	224.08707	170.42183	988.77222	54.46082	-160.43916	995.84106	56.52344	51.16288	1041.63477	212.85419	-37.06672	1043.51978	213.40421	224.53278	765.23169	101.24667	-212.63972	764.92072	110.54776	258.09293	347.70050	0.05070	-240.81891	276.64871	14.35721	253.54324	20.48149	-143.50513	-241.63666	28.37001	-151.23785	210.93562	48.11388	135.13394	-190.97836	37.49056	127.38142	-48.65712	10.82347	11.54117	-46.77436	8.04683	14.43318	-38.66393	-0.47697	-0.39215	-34.88672	-0.74548	-0.20265	2.72454	-5.57553	4.02427	2.17794	-5.54918	6.16133
156	2.58333	-94.25112	966.23285	176.03642	102.75887	961.71674	174.82648	-191.17984	541.30237	-25.86911	203.56989	543.86621	-39.56816	-196.28372	106.33685	61.73575	215.58032	113.05603	66.04444	-226.12941	32.00740	-66.46646	240.10338	32.53345	-59.51900	256.79968	546.20874	-25.39936	-244.02246	542.73895	-10.20870	263.29941	119.30082	100.91715	-242.99377	110.47834	98.24921	-150.28598	1541.85217	-58.01027	-195.46767	1495.87500	-395.80530	-179.01762	1457.74402	-666.01892	-163.56447	1452.82178	-764.46423	169.58649	1542.61914	-48.99363	232.57460	1520.82227	-386.36310	216.02234	1525.00220	-659.21570	205.12373	1515.59656	-757.94397	6.70924	1073.52649	166.32381	8.49369	1177.73950	112.57294	9.77568	1262.32385	97.81760	11.10635	1371.22302	99.77712	11.68856	1517.02966	37.75256	0.00000	0.00000	0.00000	61.85086	1072.26245	165.98515	7.82925	1126.49512	150.98170	7.38606	1088.85742	219.30319	169.83777	1001.15906	47.36256	-161.01196	1008.74323	49.39449	50.55663	1049.93262	207.04578	-37.66997	1051.95508	207.58762	222.74780	771.16174	98.95316	-211.79065	771.24207	108.00443	256.27106	349.10980	2.86898	-239.82413	278.54840	16.51224	253.15576	20.67228	-142.89813	-241.18849	28.50204	-150.27615	210.44334	48.73930	135.68787	-191.23033	38.95348	128.42294	-45.25581	10.62206	11.63369	-43.24087	7.48736	14.34641	-36.17952	-0.48054	-0.28312	-32.37671	-0.72720	-0.14814	3.48415	-5.57857	3.71108	3.07420	-5.45366	5.74662
157	2.60000	-94.93221	974.90308	167.58638	102.08005	970.35358	167.07648	-187.66550	543.00598	-21.07332	199.61667	545.40540	-34.49886	-196.62404	107.32944	62.60075	215.53285	113.59912	66.42523	-225.72026	32.43013	-65.44202	239.74654	33.02868	-59.16753	252.92702	547.90259	-20.66323	-240.65291	544.64349	-5.93042	263.37396	120.11478	101.08047	-243.65424	111.79018	98.66287	-150.17842	1559.13416	-51.56475	-193.41089	1513.30920	-389.63547	-175.52701	1475.49609	-659.80273	-160.23836	1468.96912	-758.18042	169.77266	1559.47668	-42.69363	232.36591	1536.63562	-380.06757	214.96478	1540.77271	-652.86804	202.78796	1531.11560	-751.42249	6.09115	1082.36401	160.82848	8.14041	1188.59229	109.53842	9.53980	1274.22791	96.81045	10.98376	1383.72876	101.52242	11.85190	1531.88660	43.35714	0.00000	0.00000	0.00000	61.23341	1081.09070	160.68576	7.28591	1135.68042	146.74864	6.55416	1096.43701	214.15811	169.68983	1012.77899	40.85710	-161.16368	1020.41919	41.71343	49.76590	1057.79919	201.15997	-38.46170	1059.83667	201.38834	220.68121	776.84778	96.68762	-210.76201	777.09180	104.98069	254.05557	350.63000	5.59253	-238.53580	280.23679	18.50764	252.55524	21.23272	-142.59367	-240.39345	28.65577	-149.30849	210.65279	49.31562	136.11780	-191.69687	40.21741	129.57040	-41.98533	10.13484	11.39245	-39.89301	7.02295	14.18250	-33.64666	-0.37563	-0.15759	-29.87570	-0.69657	-0.10809	4.18911	-5.54672	3.46587	3.89701	-5.24132	5.38679
